<svg width="719" height="39" viewBox="0 0 719 39" fill="none" xmlns="http://www.w3.org/2000/svg">
<path d="M35.5576 18H32.9209V12.5156H27.7793V18H25.1426V5.20312H27.7793V10.3887H32.9209V5.20312H35.5576V18ZM48.3809 11.8916C48.3809 13.1514 48.1582 14.2559 47.7129 15.2051C47.2676 16.1543 46.6289 16.8867 45.7969 17.4023C44.9707 17.918 44.0215 18.1758 42.9492 18.1758C41.8887 18.1758 40.9424 17.9209 40.1104 17.4111C39.2783 16.9014 38.6338 16.1748 38.1768 15.2314C37.7197 14.2822 37.4883 13.1924 37.4824 11.9619V11.3291C37.4824 10.0693 37.708 8.96191 38.1592 8.00684C38.6162 7.0459 39.2578 6.31055 40.084 5.80078C40.916 5.28516 41.8652 5.02734 42.9316 5.02734C43.998 5.02734 44.9443 5.28516 45.7705 5.80078C46.6025 6.31055 47.2441 7.0459 47.6953 8.00684C48.1523 8.96191 48.3809 10.0664 48.3809 11.3203V11.8916ZM45.709 11.3115C45.709 9.96973 45.4688 8.9502 44.9883 8.25293C44.5078 7.55566 43.8223 7.20703 42.9316 7.20703C42.0469 7.20703 41.3643 7.55273 40.8838 8.24414C40.4033 8.92969 40.1602 9.9375 40.1543 11.2676V11.8916C40.1543 13.1982 40.3945 14.2119 40.875 14.9326C41.3555 15.6533 42.0469 16.0137 42.9492 16.0137C43.834 16.0137 44.5137 15.668 44.9883 14.9766C45.4629 14.2793 45.7031 13.2656 45.709 11.9355V11.3115ZM53.7422 5.20312L57.0293 14.4844L60.2988 5.20312H63.7617V18H61.1162V14.502L61.3799 8.46387L57.9258 18H56.1152L52.6699 8.47266L52.9336 14.502V18H50.2969V5.20312H53.7422ZM73.7637 12.4541H68.7012V15.8818H74.6426V18H66.0645V5.20312H74.625V7.33887H68.7012V10.3887H73.7637V12.4541Z" fill="black"/>
<path d="M129.779 12.4912V17H127.143V4.20312H132.135C133.096 4.20312 133.939 4.37891 134.666 4.73047C135.398 5.08203 135.961 5.58301 136.354 6.2334C136.746 6.87793 136.942 7.61328 136.942 8.43945C136.942 9.69336 136.512 10.6836 135.65 11.4102C134.795 12.1309 133.608 12.4912 132.091 12.4912H129.779ZM129.779 10.3555H132.135C132.832 10.3555 133.362 10.1914 133.726 9.86328C134.095 9.53516 134.279 9.06641 134.279 8.45703C134.279 7.83008 134.095 7.32324 133.726 6.93652C133.356 6.5498 132.847 6.35059 132.196 6.33887H129.779V10.3555ZM144.129 12.3154H142.028V17H139.392V4.20312H144.147C145.658 4.20312 146.824 4.54004 147.645 5.21387C148.465 5.8877 148.875 6.83984 148.875 8.07031C148.875 8.94336 148.685 9.67285 148.304 10.2588C147.929 10.8389 147.358 11.3018 146.59 11.6475L149.359 16.877V17H146.528L144.129 12.3154ZM142.028 10.1797H144.155C144.818 10.1797 145.33 10.0127 145.693 9.67871C146.057 9.33887 146.238 8.87305 146.238 8.28125C146.238 7.67773 146.066 7.20312 145.72 6.85742C145.38 6.51172 144.856 6.33887 144.147 6.33887H142.028V10.1797ZM162.03 10.8916C162.03 12.1514 161.807 13.2559 161.362 14.2051C160.916 15.1543 160.278 15.8867 159.446 16.4023C158.619 16.918 157.67 17.1758 156.598 17.1758C155.537 17.1758 154.591 16.9209 153.759 16.4111C152.927 15.9014 152.282 15.1748 151.825 14.2314C151.368 13.2822 151.137 12.1924 151.131 10.9619V10.3291C151.131 9.06934 151.357 7.96191 151.808 7.00684C152.265 6.0459 152.906 5.31055 153.733 4.80078C154.565 4.28516 155.514 4.02734 156.58 4.02734C157.647 4.02734 158.593 4.28516 159.419 4.80078C160.251 5.31055 160.893 6.0459 161.344 7.00684C161.801 7.96191 162.03 9.06641 162.03 10.3203V10.8916ZM159.358 10.3115C159.358 8.96973 159.117 7.9502 158.637 7.25293C158.156 6.55566 157.471 6.20703 156.58 6.20703C155.696 6.20703 155.013 6.55273 154.532 7.24414C154.052 7.92969 153.809 8.9375 153.803 10.2676V10.8916C153.803 12.1982 154.043 13.2119 154.524 13.9326C155.004 14.6533 155.696 15.0137 156.598 15.0137C157.483 15.0137 158.162 14.668 158.637 13.9766C159.112 13.2793 159.352 12.2656 159.358 10.9355V10.3115ZM172.275 11.7705H167.212V17H164.576V4.20312H172.908V6.33887H167.212V9.64355H172.275V11.7705ZM177.871 17H175.234V4.20312H177.871V17ZM183.589 14.8818H189.188V17H180.953V4.20312H183.589V14.8818ZM199.038 11.4541H193.975V14.8818H199.917V17H191.339V4.20312H199.899V6.33887H193.975V9.38867H199.038V11.4541Z" fill="black"/>
<path d="M247.642 15.4727C247.193 16.0094 246.56 16.4272 245.741 16.7261C244.922 17.0194 244.014 17.166 243.018 17.166C241.972 17.166 241.054 16.9391 240.262 16.4854C239.476 16.026 238.868 15.362 238.436 14.4932C238.01 13.6243 237.791 12.6034 237.78 11.4302V10.6084C237.78 9.40202 237.982 8.35889 238.386 7.479C238.796 6.59359 239.382 5.91846 240.146 5.45361C240.915 4.98324 241.814 4.74805 242.844 4.74805C244.277 4.74805 245.398 5.09115 246.206 5.77734C247.014 6.45801 247.492 7.45133 247.642 8.75732H245.218C245.107 8.06559 244.861 7.55924 244.479 7.23828C244.103 6.91732 243.583 6.75684 242.918 6.75684C242.072 6.75684 241.427 7.07503 240.984 7.71143C240.542 8.34782 240.318 9.29411 240.312 10.5503V11.3223C240.312 12.5895 240.553 13.5469 241.034 14.1943C241.516 14.8418 242.221 15.1655 243.151 15.1655C244.086 15.1655 244.753 14.9663 245.151 14.5679V12.4844H242.885V10.6499H247.642V15.4727ZM257.425 14.5098H253.059L252.229 17H249.581L254.08 4.91406H256.388L260.912 17H258.264L257.425 14.5098ZM253.731 12.4927H256.753L255.234 7.96875L253.731 12.4927ZM265.466 14.9995H270.753V17H262.975V4.91406H265.466V14.9995ZM280.396 11.7622H275.615V14.9995H281.226V17H273.124V4.91406H281.209V6.93115H275.615V9.81152H280.396V11.7622ZM288.096 12.5757H286.112V17H283.622V4.91406H288.113C289.54 4.91406 290.642 5.23226 291.416 5.86865C292.191 6.50505 292.578 7.4043 292.578 8.56641C292.578 9.39095 292.399 10.0799 292.039 10.6333C291.685 11.1812 291.145 11.6183 290.42 11.9448L293.035 16.8838V17H290.362L288.096 12.5757ZM286.112 10.5586H288.121C288.746 10.5586 289.23 10.4009 289.573 10.0854C289.917 9.76449 290.088 9.32454 290.088 8.76562C290.088 8.19564 289.925 7.7474 289.598 7.4209C289.277 7.0944 288.782 6.93115 288.113 6.93115H286.112V10.5586ZM298.062 17H295.572V4.91406H298.062V17Z" fill="black"/>
<path d="M336.079 18V5.91406H339.798C340.86 5.91406 341.809 6.15479 342.645 6.63623C343.486 7.11214 344.142 7.79281 344.612 8.67822C345.083 9.55811 345.318 10.5597 345.318 11.6831V12.2393C345.318 13.3626 345.085 14.3615 344.621 15.2358C344.161 16.1102 343.511 16.7881 342.67 17.2695C341.829 17.751 340.88 17.9945 339.823 18H336.079ZM338.569 7.93115V15.9995H339.773C340.747 15.9995 341.491 15.6813 342.006 15.0449C342.521 14.4085 342.783 13.4982 342.794 12.314V11.6748C342.794 10.4463 342.54 9.5166 342.031 8.88574C341.522 8.24935 340.777 7.93115 339.798 7.93115H338.569ZM354.626 15.5098H350.26L349.43 18H346.782L351.281 5.91406H353.589L358.113 18H355.465L354.626 15.5098ZM350.933 13.4927H353.954L352.435 8.96875L350.933 13.4927ZM367.363 13.061H362.582V18H360.092V5.91406H367.961V7.93115H362.582V11.0522H367.363V13.061ZM379.519 7.93115H375.817V18H373.326V7.93115H369.674V5.91406H379.519V7.93115ZM387.624 15.5098H383.257L382.427 18H379.779L384.278 5.91406H386.586L391.11 18H388.462L387.624 15.5098ZM383.93 13.4927H386.951L385.432 8.96875L383.93 13.4927ZM397.563 13.5757H395.579V18H393.089V5.91406H397.58C399.007 5.91406 400.109 6.23226 400.883 6.86865C401.658 7.50505 402.045 8.4043 402.045 9.56641C402.045 10.391 401.866 11.0799 401.506 11.6333C401.152 12.1812 400.612 12.6183 399.887 12.9448L402.502 17.8838V18H399.829L397.563 13.5757ZM395.579 11.5586H397.588C398.213 11.5586 398.697 11.4009 399.041 11.0854C399.384 10.7645 399.555 10.3245 399.555 9.76562C399.555 9.19564 399.392 8.7474 399.065 8.4209C398.744 8.0944 398.249 7.93115 397.58 7.93115H395.579V11.5586ZM412.528 18H410.037V5.91406H412.528V18ZM421.961 14.8291C421.961 14.3587 421.795 13.999 421.463 13.75C421.131 13.4954 420.533 13.2298 419.67 12.9531C418.806 12.6709 418.123 12.3942 417.619 12.123C416.247 11.3815 415.561 10.3826 415.561 9.12646C415.561 8.47347 415.743 7.89242 416.109 7.3833C416.479 6.86865 417.008 6.46745 417.694 6.17969C418.386 5.89193 419.161 5.74805 420.018 5.74805C420.882 5.74805 421.651 5.90576 422.326 6.22119C423.001 6.53109 423.524 6.97103 423.895 7.54102C424.271 8.111 424.459 8.75846 424.459 9.4834H421.969C421.969 8.93001 421.795 8.50114 421.446 8.19678C421.097 7.88688 420.608 7.73193 419.977 7.73193C419.368 7.73193 418.895 7.86198 418.557 8.12207C418.22 8.37663 418.051 8.71419 418.051 9.13477C418.051 9.52767 418.247 9.85693 418.64 10.1226C419.039 10.3882 419.623 10.6372 420.392 10.8696C421.808 11.2957 422.841 11.8242 423.488 12.4551C424.135 13.0859 424.459 13.8717 424.459 14.8125C424.459 15.8584 424.064 16.6802 423.272 17.2778C422.481 17.87 421.416 18.166 420.076 18.166C419.147 18.166 418.3 17.9972 417.536 17.6597C416.773 17.3166 416.189 16.849 415.785 16.2568C415.386 15.6647 415.187 14.9785 415.187 14.1982H417.686C417.686 15.5319 418.483 16.1987 420.076 16.1987C420.668 16.1987 421.131 16.0798 421.463 15.8418C421.795 15.5983 421.961 15.2607 421.961 14.8291ZM429.65 18H427.16V5.91406H429.65V18Z" fill="black"/>
<path d="M464.177 6.93115H460.475V17H457.984V6.93115H454.332V4.91406H464.177V6.93115ZM475.772 4.91406V12.8745C475.772 14.1971 475.357 15.243 474.527 16.0122C473.702 16.7814 472.573 17.166 471.14 17.166C469.729 17.166 468.608 16.7925 467.778 16.0454C466.948 15.2983 466.525 14.2718 466.508 12.9658V4.91406H468.999V12.8911C468.999 13.6825 469.187 14.2607 469.563 14.626C469.945 14.9857 470.471 15.1655 471.14 15.1655C472.54 15.1655 473.251 14.4295 473.273 12.9575V4.91406H475.772ZM487.932 6.93115H484.229V17H481.739V6.93115H478.087V4.91406H487.932V6.93115ZM500.075 11.231C500.075 12.4207 499.864 13.4639 499.444 14.3604C499.023 15.2568 498.42 15.9486 497.634 16.4355C496.854 16.9225 495.957 17.166 494.945 17.166C493.943 17.166 493.049 16.9253 492.264 16.4438C491.478 15.9624 490.869 15.2762 490.437 14.3853C490.006 13.4888 489.787 12.4595 489.782 11.2974V10.6997C489.782 9.50993 489.995 8.46403 490.421 7.56201C490.852 6.65446 491.458 5.95996 492.239 5.47852C493.025 4.99154 493.921 4.74805 494.928 4.74805C495.935 4.74805 496.829 4.99154 497.609 5.47852C498.395 5.95996 499.001 6.65446 499.427 7.56201C499.859 8.46403 500.075 9.50716 500.075 10.6914V11.231ZM497.551 10.6831C497.551 9.41585 497.324 8.45296 496.871 7.79443C496.417 7.1359 495.769 6.80664 494.928 6.80664C494.093 6.80664 493.448 7.13314 492.994 7.78613C492.54 8.43359 492.311 9.38542 492.305 10.6416V11.231C492.305 12.465 492.532 13.4224 492.986 14.103C493.44 14.7837 494.093 15.124 494.945 15.124C495.78 15.124 496.422 14.7975 496.871 14.1445C497.319 13.486 497.546 12.5286 497.551 11.2725V10.6831ZM507.378 12.5757H505.394V17H502.904V4.91406H507.395C508.823 4.91406 509.924 5.23226 510.699 5.86865C511.473 6.50505 511.861 7.4043 511.861 8.56641C511.861 9.39095 511.681 10.0799 511.321 10.6333C510.967 11.1812 510.427 11.6183 509.703 11.9448L512.317 16.8838V17H509.644L507.378 12.5757ZM505.394 10.5586H507.403C508.029 10.5586 508.513 10.4009 508.856 10.0854C509.199 9.76449 509.371 9.32454 509.371 8.76562C509.371 8.19564 509.207 7.7474 508.881 7.4209C508.56 7.0944 508.065 6.93115 507.395 6.93115H505.394V10.5586ZM517.43 17H514.939V4.91406H517.43V17ZM527.738 14.5098H523.372L522.542 17H519.894L524.393 4.91406H526.701L531.224 17H528.577L527.738 14.5098ZM524.044 12.4927H527.066L525.547 7.96875L524.044 12.4927ZM535.864 14.9995H541.151V17H533.373V4.91406H535.864V14.9995Z" fill="black"/>
<path d="M573.567 12.9741C573.473 14.2746 572.991 15.2983 572.123 16.0454C571.259 16.7925 570.119 17.166 568.703 17.166C567.153 17.166 565.933 16.6458 565.042 15.6055C564.157 14.5596 563.714 13.1263 563.714 11.3057V10.5669C563.714 9.40479 563.919 8.38102 564.328 7.49561C564.738 6.61019 565.321 5.93229 566.08 5.46191C566.843 4.986 567.729 4.74805 568.736 4.74805C570.13 4.74805 571.254 5.12158 572.106 5.86865C572.958 6.61572 573.451 7.66439 573.583 9.01465H571.093C571.032 8.23438 570.814 7.66992 570.438 7.32129C570.067 6.96712 569.5 6.79004 568.736 6.79004C567.906 6.79004 567.283 7.08887 566.868 7.68652C566.459 8.27865 566.248 9.20003 566.237 10.4507V11.3638C566.237 12.6698 566.434 13.6243 566.827 14.2275C567.225 14.8307 567.85 15.1323 568.703 15.1323C569.472 15.1323 570.045 14.958 570.421 14.6094C570.803 14.2552 571.021 13.7101 571.077 12.9741H573.567ZM585.98 11.231C585.98 12.4207 585.77 13.4639 585.349 14.3604C584.928 15.2568 584.325 15.9486 583.539 16.4355C582.759 16.9225 581.863 17.166 580.85 17.166C579.848 17.166 578.955 16.9253 578.169 16.4438C577.383 15.9624 576.774 15.2762 576.343 14.3853C575.911 13.4888 575.692 12.4595 575.687 11.2974V10.6997C575.687 9.50993 575.9 8.46403 576.326 7.56201C576.758 6.65446 577.364 5.95996 578.144 5.47852C578.93 4.99154 579.826 4.74805 580.833 4.74805C581.841 4.74805 582.734 4.99154 583.515 5.47852C584.3 5.95996 584.906 6.65446 585.332 7.56201C585.764 8.46403 585.98 9.50716 585.98 10.6914V11.231ZM583.456 10.6831C583.456 9.41585 583.23 8.45296 582.776 7.79443C582.322 7.1359 581.675 6.80664 580.833 6.80664C579.998 6.80664 579.353 7.13314 578.899 7.78613C578.446 8.43359 578.216 9.38542 578.21 10.6416V11.231C578.21 12.465 578.437 13.4224 578.891 14.103C579.345 14.7837 579.998 15.124 580.85 15.124C581.686 15.124 582.328 14.7975 582.776 14.1445C583.224 13.486 583.451 12.5286 583.456 11.2725V10.6831ZM598.468 17H595.977L591.13 9.04785V17H588.639V4.91406H591.13L595.986 12.8828V4.91406H598.468V17ZM610.341 6.93115H606.639V17H604.149V6.93115H600.496V4.91406H610.341V6.93115ZM618.446 14.5098H614.08L613.25 17H610.602L615.101 4.91406H617.408L621.932 17H619.284L618.446 14.5098ZM614.752 12.4927H617.774L616.254 7.96875L614.752 12.4927ZM633.216 12.9741C633.122 14.2746 632.641 15.2983 631.772 16.0454C630.909 16.7925 629.769 17.166 628.352 17.166C626.803 17.166 625.582 16.6458 624.691 15.6055C623.806 14.5596 623.363 13.1263 623.363 11.3057V10.5669C623.363 9.40479 623.568 8.38102 623.978 7.49561C624.387 6.61019 624.971 5.93229 625.729 5.46191C626.493 4.986 627.378 4.74805 628.385 4.74805C629.78 4.74805 630.903 5.12158 631.755 5.86865C632.608 6.61572 633.1 7.66439 633.233 9.01465H630.743C630.682 8.23438 630.463 7.66992 630.087 7.32129C629.716 6.96712 629.149 6.79004 628.385 6.79004C627.555 6.79004 626.933 7.08887 626.518 7.68652C626.108 8.27865 625.898 9.20003 625.887 10.4507V11.3638C625.887 12.6698 626.083 13.6243 626.476 14.2275C626.875 14.8307 627.5 15.1323 628.352 15.1323C629.121 15.1323 629.694 14.958 630.07 14.6094C630.452 14.2552 630.671 13.7101 630.726 12.9741H633.216ZM644.55 6.93115H640.848V17H638.358V6.93115H634.705V4.91406H644.55V6.93115ZM660.561 4.91406V12.8745C660.561 14.1971 660.146 15.243 659.316 16.0122C658.491 16.7814 657.362 17.166 655.929 17.166C654.518 17.166 653.397 16.7925 652.567 16.0454C651.737 15.2983 651.314 14.2718 651.297 12.9658V4.91406H653.787V12.8911C653.787 13.6825 653.975 14.2607 654.352 14.626C654.734 14.9857 655.259 15.1655 655.929 15.1655C657.329 15.1655 658.04 14.4295 658.062 12.9575V4.91406H660.561ZM669.72 13.8291C669.72 13.3587 669.554 12.999 669.222 12.75C668.89 12.4954 668.292 12.2298 667.429 11.9531C666.566 11.6709 665.882 11.3942 665.379 11.123C664.006 10.3815 663.32 9.38265 663.32 8.12646C663.32 7.47347 663.503 6.89242 663.868 6.3833C664.239 5.86865 664.767 5.46745 665.453 5.17969C666.145 4.89193 666.92 4.74805 667.777 4.74805C668.641 4.74805 669.41 4.90576 670.085 5.22119C670.76 5.53109 671.283 5.97103 671.654 6.54102C672.03 7.111 672.218 7.75846 672.218 8.4834H669.728C669.728 7.93001 669.554 7.50114 669.205 7.19678C668.857 6.88688 668.367 6.73193 667.736 6.73193C667.127 6.73193 666.654 6.86198 666.317 7.12207C665.979 7.37663 665.81 7.71419 665.81 8.13477C665.81 8.52767 666.007 8.85693 666.4 9.12256C666.798 9.38818 667.382 9.63721 668.151 9.86963C669.568 10.2957 670.6 10.8242 671.247 11.4551C671.895 12.0859 672.218 12.8717 672.218 13.8125C672.218 14.8584 671.823 15.6802 671.031 16.2778C670.24 16.87 669.175 17.166 667.836 17.166C666.906 17.166 666.059 16.9972 665.296 16.6597C664.532 16.3166 663.948 15.849 663.544 15.2568C663.146 14.6647 662.946 13.9785 662.946 13.1982H665.445C665.445 14.5319 666.242 15.1987 667.836 15.1987C668.428 15.1987 668.89 15.0798 669.222 14.8418C669.554 14.5983 669.72 14.2607 669.72 13.8291Z" fill="black"/>
<line x1="559.488" y1="33.4878" x2="678.488" y2="32.5123" stroke="black" stroke-width="3" stroke-linecap="round"/>
<line x1="1.5" y1="-1.5" x2="107.362" y2="-1.5" transform="matrix(0.999958 -0.00918592 0.00731354 0.999973 322 37)" stroke="black" stroke-width="3" stroke-linecap="round"/>
<line x1="1.5" y1="-1.5" x2="103.843" y2="-1.5" transform="matrix(0.999955 -0.00949279 0.00707711 0.999975 442 36)" stroke="black" stroke-width="3" stroke-linecap="round"/>
<line x1="1.5" y1="-1.5" x2="97.0923" y2="-1.5" transform="matrix(0.999949 -0.0101428 0.00662356 0.999978 216 38)" stroke="black" stroke-width="3" stroke-linecap="round"/>
<line x1="1.5" y1="-1.5" x2="97.0923" y2="-1.5" transform="matrix(0.999949 -0.0101428 0.00662356 0.999978 110 39)" stroke="black" stroke-width="3" stroke-linecap="round"/>
<line x1="1.5" y1="-1.5" x2="97.0923" y2="-1.5" transform="matrix(0.999949 -0.0101428 0.00662356 0.999978 1 39)" stroke="black" stroke-width="3" stroke-linecap="round"/>
</svg>
