<svg width="439" height="313" viewBox="0 0 439 313" fill="none" xmlns="http://www.w3.org/2000/svg">
<path d="M338.406 -19.8843C381.286 32.5185 479.753 80.1574 416.226 312M317.759 -19.8843C360.64 32.5185 456.724 80.1574 393.197 312M294.731 -23.8542C337.611 28.5486 431.314 70.6296 367.787 302.472M275.673 -18.2963C318.553 34.1065 405.108 80.1574 341.581 312M251.056 -19.8843C293.936 32.5185 384.463 71.4236 320.936 303.266M2.5071 -18.2963C-0.933938 25.108 12.036 136.054 75.5629 194.491M26.3297 -18.2963C22.8886 25.108 35.8586 136.054 99.3855 194.491M44.5937 -18.2963C41.1526 25.108 62.8575 136.054 126.384 194.491M65.2399 -18.2963C61.7989 25.108 85.092 120.65 144.648 194.491M84.298 -18.2963C80.8569 25.108 113.679 109.535 166.089 194.491M103.356 -18.2963C99.915 25.108 135.913 109.535 188.323 194.491M122.414 -18.2963C118.973 25.108 162.118 109.535 214.528 194.491M140.678 -18.2963C137.237 25.108 185.146 79.3634 229.615 194.491M162.118 -18.2963C158.677 25.108 206.587 72.2176 251.056 187.345M179.588 -18.2963C179.588 17.4329 228.821 72.2176 273.29 187.345M198.646 -18.2963C210.558 21.4028 267.732 84.9213 289.966 187.345M205.793 -31C232.792 11.081 289.966 84.9213 312.201 187.345M235.968 -18.2963C269.32 15.8449 327.288 103.977 327.288 194.491" stroke="#FEFCFC" stroke-width="3" stroke-linejoin="round"/>
</svg>
