<svg width="938" height="741" viewBox="0 0 938 741" fill="none" xmlns="http://www.w3.org/2000/svg">
<path d="M792.597 824.091C780.68 772.416 724.44 654.864 594.817 598.06C518.242 564.504 454.988 521.202 411.303 478.356" stroke="white" stroke-width="3" stroke-linejoin="round"/>
<path d="M785.701 831.956C773.784 780.28 717.544 662.728 587.921 605.924C511.425 572.402 448.222 529.156 404.541 486.352" stroke="white" stroke-width="3" stroke-linejoin="round"/>
<path d="M780.239 838.82C768.322 787.144 712.082 669.592 582.459 612.789C505.854 579.219 442.579 535.897 398.892 493.033" stroke="white" stroke-width="3" stroke-linejoin="round"/>
<path d="M773.412 847.4C761.495 795.725 705.255 678.172 575.632 621.369C498.05 587.371 434.141 543.371 390.404 499.975" stroke="white" stroke-width="3" stroke-linejoin="round"/>
<path d="M766.584 855.981C754.667 804.305 698.428 686.753 568.804 629.949C491.926 596.26 428.473 552.748 384.771 509.735" stroke="white" stroke-width="3" stroke-linejoin="round"/>
<path d="M761.123 862.845C749.206 811.169 692.966 693.617 563.343 636.814C486.145 602.984 422.484 559.25 378.765 516.063" stroke="white" stroke-width="3" stroke-linejoin="round"/>
<path d="M753.84 871.997C741.923 820.322 685.684 702.77 556.06 645.966C478.353 611.913 414.362 567.825 370.62 524.36" stroke="white" stroke-width="3" stroke-linejoin="round"/>
<path d="M748.378 878.862C736.462 827.186 680.222 709.634 550.598 652.83C472.512 618.611 408.277 574.259 364.52 530.589" stroke="white" stroke-width="3" stroke-linejoin="round"/>
<path d="M742.462 886.298C730.545 834.622 674.305 717.07 544.682 660.267C466.476 625.995 402.163 581.56 358.402 537.824" stroke="white" stroke-width="3" stroke-linejoin="round"/>
<path d="M735.634 894.878C723.717 843.203 667.478 725.65 537.854 668.847C459.933 634.7 395.804 590.463 352.053 546.882" stroke="white" stroke-width="3" stroke-linejoin="round"/>
<path d="M728.352 904.031C716.435 852.355 660.195 734.803 530.572 677.999C452.503 643.788 388.279 599.448 344.523 555.787" stroke="white" stroke-width="3" stroke-linejoin="round"/>
<path d="M721.07 913.183C709.153 861.507 652.913 743.955 523.29 687.152C445.074 652.876 380.755 608.433 336.993 564.693" stroke="white" stroke-width="3" stroke-linejoin="round"/>
<path d="M712.422 924.052C700.505 872.376 644.265 754.824 514.642 698.02C436.251 663.668 371.819 619.103 328.052 575.268" stroke="white" stroke-width="3" stroke-linejoin="round"/>
<path d="M705.139 933.204C693.223 881.528 636.983 763.976 507.359 707.173C428.397 672.57 363.597 627.605 319.815 583.461" stroke="white" stroke-width="3" stroke-linejoin="round"/>
<path d="M698.312 941.784C686.395 890.109 630.156 772.556 500.532 715.753C421.643 681.182 356.891 636.269 313.11 592.165" stroke="white" stroke-width="3" stroke-linejoin="round"/>
<path d="M692.85 948.649C680.934 896.973 624.694 779.421 495.07 722.617C416.07 687.998 351.247 643.007 307.464 598.843" stroke="white" stroke-width="3" stroke-linejoin="round"/>
</svg>
