<svg width="1031" height="382" viewBox="0 0 1031 382" fill="none" xmlns="http://www.w3.org/2000/svg">
<path d="M-2.74597 219.562C39.7278 263.814 158.597 339.177 294.285 286.61C374.441 255.556 450.718 246.368 511.754 253.698" stroke="white" stroke-width="3" stroke-linejoin="round"/>
<path d="M-2.55728 205.262C39.9165 249.514 158.786 324.877 294.473 272.31C374.547 241.288 450.75 232.087 511.754 239.375" stroke="white" stroke-width="3" stroke-linejoin="round"/>
<path d="M-2.81867 193.265C39.6551 237.517 158.525 312.88 294.212 260.313C374.4 229.246 450.706 220.064 511.754 227.41" stroke="white" stroke-width="3" stroke-linejoin="round"/>
<path d="M-3.14534 178.269C39.3284 222.521 158.198 297.884 293.885 245.316C375.096 213.854 452.324 204.837 513.754 212.702" stroke="white" stroke-width="3" stroke-linejoin="round"/>
<path d="M-3.47204 163.272C39.0017 207.524 157.871 282.887 293.559 230.32C374.033 199.143 450.597 190.005 511.754 197.496" stroke="white" stroke-width="3" stroke-linejoin="round"/>
<path d="M-3.73331 151.275C38.7405 195.527 157.61 270.89 293.297 218.323C374.106 187.016 450.972 177.933 512.254 185.593" stroke="white" stroke-width="3" stroke-linejoin="round"/>
<path d="M-4.08181 135.279C38.392 179.531 157.261 254.894 292.949 202.326C374.291 170.813 451.638 161.818 513.117 169.751" stroke="white" stroke-width="3" stroke-linejoin="round"/>
<path d="M-4.34311 123.282C38.1307 167.534 157 242.897 292.687 190.329C374.427 158.662 452.131 149.733 513.754 157.871" stroke="white" stroke-width="3" stroke-linejoin="round"/>
<path d="M-4.62625 110.285C37.8475 154.537 156.717 229.9 292.404 177.332C374.269 145.617 452.086 136.709 513.754 144.911" stroke="white" stroke-width="3" stroke-linejoin="round"/>
<path d="M-4.95292 95.2884C37.5209 139.541 156.39 214.903 292.078 162.336C373.644 130.736 451.193 121.778 512.754 129.826" stroke="white" stroke-width="3" stroke-linejoin="round"/>
<path d="M-5.30133 79.2922C37.1725 123.544 156.042 198.907 291.729 146.34C373.45 114.68 451.138 105.748 512.754 113.876" stroke="white" stroke-width="3" stroke-linejoin="round"/>
<path d="M-5.64977 63.296C36.824 107.548 155.693 182.911 291.381 130.343C373.256 98.6239 451.082 89.7178 512.754 97.9258" stroke="white" stroke-width="3" stroke-linejoin="round"/>
<path d="M-6.06352 44.3005C36.4103 88.5527 155.28 163.915 290.967 111.348C373.025 79.5574 451.017 70.6826 512.754 78.9856" stroke="white" stroke-width="3" stroke-linejoin="round"/>
<path d="M-6.41202 28.3043C36.0618 72.5565 154.931 147.919 290.619 95.3518C373.275 63.3293 451.806 54.5581 513.754 63.1739" stroke="white" stroke-width="3" stroke-linejoin="round"/>
<path d="M-6.73866 13.3078C35.7351 57.56 154.605 132.923 290.292 80.3553C372.871 48.3627 451.333 39.5781 513.254 48.1534" stroke="white" stroke-width="3" stroke-linejoin="round"/>
<path d="M-6.99999 1.3107C35.4738 45.5629 154.343 120.926 290.031 68.3582C372.726 36.3205 451.292 27.5562 513.254 36.1925" stroke="white" stroke-width="3" stroke-linejoin="round"/>
<circle cx="400.254" cy="223.251" r="67.5" stroke="#0F456B" stroke-width="9" stroke-linejoin="round"/>
</svg>
