<svg width="1097" height="904" viewBox="0 0 1097 904" fill="none" xmlns="http://www.w3.org/2000/svg">
<path d="M11.1303 122.613C0.0874119 188.077 86.7025 310.509 176.413 327.931C359.103 363.408 801.131 195.706 847.329 304.739C857.287 328.241 892.589 455.558 942.504 456.11C992.418 456.662 1076.13 385.841 1109.23 399.381" stroke="white" stroke-width="2"/>
<path d="M13.9581 135.973C2.9571 201.636 89.6657 324.509 179.4 342.045C362.139 377.755 804.119 209.82 850.395 319.226C860.37 342.808 895.762 470.549 945.684 471.136C995.606 471.723 1079.29 400.735 1112.4 414.339" stroke="white" stroke-width="2"/>
<path d="M17.8462 154.343C6.80332 219.808 93.4184 342.24 183.129 359.661C365.819 395.139 807.847 227.436 854.045 336.469C864.003 359.971 899.305 487.289 949.22 487.841C999.134 488.393 1082.85 417.571 1115.95 431.112" stroke="white" stroke-width="2"/>
<path d="M21.0274 169.373C9.98455 234.838 96.5997 357.27 186.31 374.691C369 410.169 811.029 242.467 857.226 351.499C867.184 375.001 902.487 502.319 952.401 502.871C1002.32 503.423 1086.03 432.602 1119.13 446.142" stroke="white" stroke-width="2"/>
<path d="M25.2691 189.414C14.2262 254.878 100.841 377.31 190.552 394.732C373.241 430.209 815.27 262.507 861.468 371.54C871.426 395.042 906.728 522.359 956.643 522.911C1006.56 523.463 1090.27 452.642 1123.37 466.182" stroke="white" stroke-width="2"/>
<path d="M28.4503 204.444C17.4493 270.107 104.158 392.98 193.892 410.516C376.632 446.226 818.611 278.291 864.888 387.697C874.863 411.279 910.254 539.02 960.176 539.607C1010.1 540.194 1093.78 469.206 1126.89 482.811" stroke="white" stroke-width="2"/>
<path d="M31.985 221.144C20.9421 286.609 107.557 409.041 197.267 426.462C379.957 461.94 821.986 294.237 868.184 403.27C878.142 426.772 913.444 554.09 963.359 554.642C1013.27 555.194 1096.99 484.372 1130.09 497.913" stroke="white" stroke-width="2"/>
<path d="M34.8127 234.504C23.7698 299.969 110.385 422.401 200.095 439.822C382.785 475.3 824.814 307.598 871.011 416.63C880.969 440.132 916.272 567.45 966.186 568.002C1016.1 568.554 1099.82 497.733 1132.92 511.273" stroke="white" stroke-width="2"/>
<path d="M38.3474 251.204C27.3045 316.669 113.92 439.101 203.63 456.523C386.32 492 828.349 324.298 874.546 433.33C884.504 456.833 919.806 584.15 969.721 584.702C1019.64 585.254 1103.35 514.433 1136.45 527.973" stroke="white" stroke-width="2"/>
<path d="M41.8821 267.905C30.8811 333.568 117.59 456.441 207.324 473.977C390.063 509.687 832.043 341.752 878.319 451.158C888.294 474.74 923.686 602.481 973.608 603.068C1023.53 603.655 1107.21 532.667 1140.32 546.271" stroke="white" stroke-width="2"/>
<path d="M51.6835 313.611C40.6825 379.274 127.391 502.148 217.126 519.683C399.865 555.394 841.844 387.459 888.121 496.864C898.096 520.447 933.488 648.187 983.409 648.774C1033.33 649.361 1117.01 578.373 1150.13 591.978" stroke="white" stroke-width="2"/>
<path d="M54.6787 356.693C43.6778 422.356 130.386 545.229 220.121 562.765C402.86 598.475 844.839 430.54 891.116 539.946C901.091 563.528 936.483 691.269 986.405 691.856C1036.33 692.443 1120.01 621.455 1153.12 635.059" stroke="white" stroke-width="2"/>
<path d="M45.7703 286.275C34.7274 351.74 121.342 474.172 211.053 491.593C393.743 527.071 835.771 359.368 881.969 468.401C891.927 491.903 927.229 619.221 977.144 619.773C1027.06 620.325 1110.77 549.503 1143.87 563.044" stroke="white" stroke-width="2"/>
<path d="M55.5716 331.981C44.5287 397.446 131.144 519.878 220.854 537.3C403.544 572.777 845.573 405.075 891.77 514.107C901.728 537.61 937.031 664.927 986.945 665.479C1036.86 666.031 1120.58 595.21 1153.68 608.75" stroke="white" stroke-width="2"/>
<path d="M58.5669 375.063C47.524 440.528 134.139 562.96 223.849 580.381C406.539 615.859 848.568 448.156 894.766 557.189C904.724 580.691 940.026 708.009 989.94 708.561C1039.85 709.113 1123.57 638.292 1156.67 651.832" stroke="white" stroke-width="2"/>
<path d="M49.305 302.975C38.2621 368.44 124.877 490.872 214.587 508.293C397.277 543.771 839.306 376.069 885.504 485.101C895.462 508.603 930.764 635.921 980.678 636.473C1030.59 637.025 1114.31 566.204 1147.41 579.744" stroke="white" stroke-width="2"/>
<path d="M59.1063 348.682C48.0634 414.146 134.679 536.578 224.389 554C407.079 589.478 849.107 421.775 895.305 530.808C905.263 554.31 940.565 681.627 990.48 682.179C1040.39 682.732 1124.11 611.91 1157.21 625.45" stroke="white" stroke-width="2"/>
<path d="M62.1016 391.763C51.0587 457.228 137.674 579.66 227.384 597.081C410.074 632.559 852.103 464.857 898.3 573.889C908.258 597.392 943.561 724.709 993.475 725.261C1043.39 725.813 1127.11 654.992 1160.21 668.532" stroke="white" stroke-width="2"/>
</svg>
