<svg width="695" height="37" viewBox="0 0 695 37" fill="none" xmlns="http://www.w3.org/2000/svg">
<path d="M11.5576 18H8.9209V12.5156H3.7793V18H1.14258V5.20312H3.7793V10.3887H8.9209V5.20312H11.5576V18ZM24.3809 11.8916C24.3809 13.1514 24.1582 14.2559 23.7129 15.2051C23.2676 16.1543 22.6289 16.8867 21.7969 17.4023C20.9707 17.918 20.0215 18.1758 18.9492 18.1758C17.8887 18.1758 16.9424 17.9209 16.1104 17.4111C15.2783 16.9014 14.6338 16.1748 14.1768 15.2314C13.7197 14.2822 13.4883 13.1924 13.4824 11.9619V11.3291C13.4824 10.0693 13.708 8.96191 14.1592 8.00684C14.6162 7.0459 15.2578 6.31055 16.084 5.80078C16.916 5.28516 17.8652 5.02734 18.9316 5.02734C19.998 5.02734 20.9443 5.28516 21.7705 5.80078C22.6025 6.31055 23.2441 7.0459 23.6953 8.00684C24.1523 8.96191 24.3809 10.0664 24.3809 11.3203V11.8916ZM21.709 11.3115C21.709 9.96973 21.4688 8.9502 20.9883 8.25293C20.5078 7.55566 19.8223 7.20703 18.9316 7.20703C18.0469 7.20703 17.3643 7.55273 16.8838 8.24414C16.4033 8.92969 16.1602 9.9375 16.1543 11.2676V11.8916C16.1543 13.1982 16.3945 14.2119 16.875 14.9326C17.3555 15.6533 18.0469 16.0137 18.9492 16.0137C19.834 16.0137 20.5137 15.668 20.9883 14.9766C21.4629 14.2793 21.7031 13.2656 21.709 11.9355V11.3115ZM29.7422 5.20312L33.0293 14.4844L36.2988 5.20312H39.7617V18H37.1162V14.502L37.3799 8.46387L33.9258 18H32.1152L28.6699 8.47266L28.9336 14.502V18H26.2969V5.20312H29.7422ZM49.7637 12.4541H44.7012V15.8818H50.6426V18H42.0645V5.20312H50.625V7.33887H44.7012V10.3887H49.7637V12.4541Z" fill="black"/>
<path d="M105.779 12.4912V17H103.143V4.20312H108.135C109.096 4.20312 109.939 4.37891 110.666 4.73047C111.398 5.08203 111.961 5.58301 112.354 6.2334C112.746 6.87793 112.942 7.61328 112.942 8.43945C112.942 9.69336 112.512 10.6836 111.65 11.4102C110.795 12.1309 109.608 12.4912 108.091 12.4912H105.779ZM105.779 10.3555H108.135C108.832 10.3555 109.362 10.1914 109.726 9.86328C110.095 9.53516 110.279 9.06641 110.279 8.45703C110.279 7.83008 110.095 7.32324 109.726 6.93652C109.356 6.5498 108.847 6.35059 108.196 6.33887H105.779V10.3555ZM120.129 12.3154H118.028V17H115.392V4.20312H120.147C121.658 4.20312 122.824 4.54004 123.645 5.21387C124.465 5.8877 124.875 6.83984 124.875 8.07031C124.875 8.94336 124.685 9.67285 124.304 10.2588C123.929 10.8389 123.358 11.3018 122.59 11.6475L125.359 16.877V17H122.528L120.129 12.3154ZM118.028 10.1797H120.155C120.818 10.1797 121.33 10.0127 121.693 9.67871C122.057 9.33887 122.238 8.87305 122.238 8.28125C122.238 7.67773 122.066 7.20312 121.72 6.85742C121.38 6.51172 120.856 6.33887 120.147 6.33887H118.028V10.1797ZM138.03 10.8916C138.03 12.1514 137.807 13.2559 137.362 14.2051C136.916 15.1543 136.278 15.8867 135.446 16.4023C134.619 16.918 133.67 17.1758 132.598 17.1758C131.537 17.1758 130.591 16.9209 129.759 16.4111C128.927 15.9014 128.282 15.1748 127.825 14.2314C127.368 13.2822 127.137 12.1924 127.131 10.9619V10.3291C127.131 9.06934 127.357 7.96191 127.808 7.00684C128.265 6.0459 128.906 5.31055 129.733 4.80078C130.565 4.28516 131.514 4.02734 132.58 4.02734C133.647 4.02734 134.593 4.28516 135.419 4.80078C136.251 5.31055 136.893 6.0459 137.344 7.00684C137.801 7.96191 138.03 9.06641 138.03 10.3203V10.8916ZM135.358 10.3115C135.358 8.96973 135.117 7.9502 134.637 7.25293C134.156 6.55566 133.471 6.20703 132.58 6.20703C131.696 6.20703 131.013 6.55273 130.532 7.24414C130.052 7.92969 129.809 8.9375 129.803 10.2676V10.8916C129.803 12.1982 130.043 13.2119 130.524 13.9326C131.004 14.6533 131.696 15.0137 132.598 15.0137C133.483 15.0137 134.162 14.668 134.637 13.9766C135.112 13.2793 135.352 12.2656 135.358 10.9355V10.3115ZM148.275 11.7705H143.212V17H140.576V4.20312H148.908V6.33887H143.212V9.64355H148.275V11.7705ZM153.871 17H151.234V4.20312H153.871V17ZM159.589 14.8818H165.188V17H156.953V4.20312H159.589V14.8818ZM175.038 11.4541H169.975V14.8818H175.917V17H167.339V4.20312H175.899V6.33887H169.975V9.38867H175.038V11.4541Z" fill="black"/>
<path d="M223.642 15.4727C223.193 16.0094 222.56 16.4272 221.741 16.7261C220.922 17.0194 220.014 17.166 219.018 17.166C217.972 17.166 217.054 16.9391 216.262 16.4854C215.476 16.026 214.868 15.362 214.436 14.4932C214.01 13.6243 213.791 12.6034 213.78 11.4302V10.6084C213.78 9.40202 213.982 8.35889 214.386 7.479C214.796 6.59359 215.382 5.91846 216.146 5.45361C216.915 4.98324 217.814 4.74805 218.844 4.74805C220.277 4.74805 221.398 5.09115 222.206 5.77734C223.014 6.45801 223.492 7.45133 223.642 8.75732H221.218C221.107 8.06559 220.861 7.55924 220.479 7.23828C220.103 6.91732 219.583 6.75684 218.918 6.75684C218.072 6.75684 217.427 7.07503 216.984 7.71143C216.542 8.34782 216.318 9.29411 216.312 10.5503V11.3223C216.312 12.5895 216.553 13.5469 217.034 14.1943C217.516 14.8418 218.221 15.1655 219.151 15.1655C220.086 15.1655 220.753 14.9663 221.151 14.5679V12.4844H218.885V10.6499H223.642V15.4727ZM233.425 14.5098H229.059L228.229 17H225.581L230.08 4.91406H232.388L236.912 17H234.264L233.425 14.5098ZM229.731 12.4927H232.753L231.234 7.96875L229.731 12.4927ZM241.466 14.9995H246.753V17H238.975V4.91406H241.466V14.9995ZM256.396 11.7622H251.615V14.9995H257.226V17H249.124V4.91406H257.209V6.93115H251.615V9.81152H256.396V11.7622ZM264.096 12.5757H262.112V17H259.622V4.91406H264.113C265.54 4.91406 266.642 5.23226 267.416 5.86865C268.191 6.50505 268.578 7.4043 268.578 8.56641C268.578 9.39095 268.399 10.0799 268.039 10.6333C267.685 11.1812 267.145 11.6183 266.42 11.9448L269.035 16.8838V17H266.362L264.096 12.5757ZM262.112 10.5586H264.121C264.746 10.5586 265.23 10.4009 265.573 10.0854C265.917 9.76449 266.088 9.32454 266.088 8.76562C266.088 8.19564 265.925 7.7474 265.598 7.4209C265.277 7.0944 264.782 6.93115 264.113 6.93115H262.112V10.5586ZM274.062 17H271.572V4.91406H274.062V17Z" fill="black"/>
<path d="M312.079 18V5.91406H315.798C316.86 5.91406 317.809 6.15479 318.645 6.63623C319.486 7.11214 320.142 7.79281 320.612 8.67822C321.083 9.55811 321.318 10.5597 321.318 11.6831V12.2393C321.318 13.3626 321.085 14.3615 320.621 15.2358C320.161 16.1102 319.511 16.7881 318.67 17.2695C317.829 17.751 316.88 17.9945 315.823 18H312.079ZM314.569 7.93115V15.9995H315.773C316.747 15.9995 317.491 15.6813 318.006 15.0449C318.521 14.4085 318.783 13.4982 318.794 12.314V11.6748C318.794 10.4463 318.54 9.5166 318.031 8.88574C317.522 8.24935 316.777 7.93115 315.798 7.93115H314.569ZM330.626 15.5098H326.26L325.43 18H322.782L327.281 5.91406H329.589L334.113 18H331.465L330.626 15.5098ZM326.933 13.4927H329.954L328.435 8.96875L326.933 13.4927ZM343.363 13.061H338.582V18H336.092V5.91406H343.961V7.93115H338.582V11.0522H343.363V13.061ZM355.519 7.93115H351.817V18H349.326V7.93115H345.674V5.91406H355.519V7.93115ZM363.624 15.5098H359.257L358.427 18H355.779L360.278 5.91406H362.586L367.11 18H364.462L363.624 15.5098ZM359.93 13.4927H362.951L361.432 8.96875L359.93 13.4927ZM373.563 13.5757H371.579V18H369.089V5.91406H373.58C375.007 5.91406 376.109 6.23226 376.883 6.86865C377.658 7.50505 378.045 8.4043 378.045 9.56641C378.045 10.391 377.866 11.0799 377.506 11.6333C377.152 12.1812 376.612 12.6183 375.887 12.9448L378.502 17.8838V18H375.829L373.563 13.5757ZM371.579 11.5586H373.588C374.213 11.5586 374.697 11.4009 375.041 11.0854C375.384 10.7645 375.555 10.3245 375.555 9.76562C375.555 9.19564 375.392 8.7474 375.065 8.4209C374.744 8.0944 374.249 7.93115 373.58 7.93115H371.579V11.5586ZM388.528 18H386.037V5.91406H388.528V18ZM397.961 14.8291C397.961 14.3587 397.795 13.999 397.463 13.75C397.131 13.4954 396.533 13.2298 395.67 12.9531C394.806 12.6709 394.123 12.3942 393.619 12.123C392.247 11.3815 391.561 10.3826 391.561 9.12646C391.561 8.47347 391.743 7.89242 392.109 7.3833C392.479 6.86865 393.008 6.46745 393.694 6.17969C394.386 5.89193 395.161 5.74805 396.018 5.74805C396.882 5.74805 397.651 5.90576 398.326 6.22119C399.001 6.53109 399.524 6.97103 399.895 7.54102C400.271 8.111 400.459 8.75846 400.459 9.4834H397.969C397.969 8.93001 397.795 8.50114 397.446 8.19678C397.097 7.88688 396.608 7.73193 395.977 7.73193C395.368 7.73193 394.895 7.86198 394.557 8.12207C394.22 8.37663 394.051 8.71419 394.051 9.13477C394.051 9.52767 394.247 9.85693 394.64 10.1226C395.039 10.3882 395.623 10.6372 396.392 10.8696C397.808 11.2957 398.841 11.8242 399.488 12.4551C400.135 13.0859 400.459 13.8717 400.459 14.8125C400.459 15.8584 400.064 16.6802 399.272 17.2778C398.481 17.87 397.416 18.166 396.076 18.166C395.147 18.166 394.3 17.9972 393.536 17.6597C392.773 17.3166 392.189 16.849 391.785 16.2568C391.386 15.6647 391.187 14.9785 391.187 14.1982H393.686C393.686 15.5319 394.483 16.1987 396.076 16.1987C396.668 16.1987 397.131 16.0798 397.463 15.8418C397.795 15.5983 397.961 15.2607 397.961 14.8291ZM405.65 18H403.16V5.91406H405.65V18Z" fill="black"/>
<path d="M440.177 6.93115H436.475V17H433.984V6.93115H430.332V4.91406H440.177V6.93115ZM451.772 4.91406V12.8745C451.772 14.1971 451.357 15.243 450.527 16.0122C449.702 16.7814 448.573 17.166 447.14 17.166C445.729 17.166 444.608 16.7925 443.778 16.0454C442.948 15.2983 442.525 14.2718 442.508 12.9658V4.91406H444.999V12.8911C444.999 13.6825 445.187 14.2607 445.563 14.626C445.945 14.9857 446.471 15.1655 447.14 15.1655C448.54 15.1655 449.251 14.4295 449.273 12.9575V4.91406H451.772ZM463.932 6.93115H460.229V17H457.739V6.93115H454.087V4.91406H463.932V6.93115ZM476.075 11.231C476.075 12.4207 475.864 13.4639 475.444 14.3604C475.023 15.2568 474.42 15.9486 473.634 16.4355C472.854 16.9225 471.957 17.166 470.945 17.166C469.943 17.166 469.049 16.9253 468.264 16.4438C467.478 15.9624 466.869 15.2762 466.437 14.3853C466.006 13.4888 465.787 12.4595 465.782 11.2974V10.6997C465.782 9.50993 465.995 8.46403 466.421 7.56201C466.852 6.65446 467.458 5.95996 468.239 5.47852C469.025 4.99154 469.921 4.74805 470.928 4.74805C471.935 4.74805 472.829 4.99154 473.609 5.47852C474.395 5.95996 475.001 6.65446 475.427 7.56201C475.859 8.46403 476.075 9.50716 476.075 10.6914V11.231ZM473.551 10.6831C473.551 9.41585 473.324 8.45296 472.871 7.79443C472.417 7.1359 471.769 6.80664 470.928 6.80664C470.093 6.80664 469.448 7.13314 468.994 7.78613C468.54 8.43359 468.311 9.38542 468.305 10.6416V11.231C468.305 12.465 468.532 13.4224 468.986 14.103C469.44 14.7837 470.093 15.124 470.945 15.124C471.78 15.124 472.422 14.7975 472.871 14.1445C473.319 13.486 473.546 12.5286 473.551 11.2725V10.6831ZM483.378 12.5757H481.394V17H478.904V4.91406H483.395C484.823 4.91406 485.924 5.23226 486.699 5.86865C487.473 6.50505 487.861 7.4043 487.861 8.56641C487.861 9.39095 487.681 10.0799 487.321 10.6333C486.967 11.1812 486.427 11.6183 485.703 11.9448L488.317 16.8838V17H485.644L483.378 12.5757ZM481.394 10.5586H483.403C484.029 10.5586 484.513 10.4009 484.856 10.0854C485.199 9.76449 485.371 9.32454 485.371 8.76562C485.371 8.19564 485.207 7.7474 484.881 7.4209C484.56 7.0944 484.065 6.93115 483.395 6.93115H481.394V10.5586ZM493.43 17H490.939V4.91406H493.43V17ZM503.738 14.5098H499.372L498.542 17H495.894L500.393 4.91406H502.701L507.224 17H504.577L503.738 14.5098ZM500.044 12.4927H503.066L501.547 7.96875L500.044 12.4927ZM511.864 14.9995H517.151V17H509.373V4.91406H511.864V14.9995Z" fill="black"/>
<path d="M549.567 12.9741C549.473 14.2746 548.991 15.2983 548.123 16.0454C547.259 16.7925 546.119 17.166 544.703 17.166C543.153 17.166 541.933 16.6458 541.042 15.6055C540.157 14.5596 539.714 13.1263 539.714 11.3057V10.5669C539.714 9.40479 539.919 8.38102 540.328 7.49561C540.738 6.61019 541.321 5.93229 542.08 5.46191C542.843 4.986 543.729 4.74805 544.736 4.74805C546.13 4.74805 547.254 5.12158 548.106 5.86865C548.958 6.61572 549.451 7.66439 549.583 9.01465H547.093C547.032 8.23438 546.814 7.66992 546.438 7.32129C546.067 6.96712 545.5 6.79004 544.736 6.79004C543.906 6.79004 543.283 7.08887 542.868 7.68652C542.459 8.27865 542.248 9.20003 542.237 10.4507V11.3638C542.237 12.6698 542.434 13.6243 542.827 14.2275C543.225 14.8307 543.85 15.1323 544.703 15.1323C545.472 15.1323 546.045 14.958 546.421 14.6094C546.803 14.2552 547.021 13.7101 547.077 12.9741H549.567ZM561.98 11.231C561.98 12.4207 561.77 13.4639 561.349 14.3604C560.928 15.2568 560.325 15.9486 559.539 16.4355C558.759 16.9225 557.863 17.166 556.85 17.166C555.848 17.166 554.955 16.9253 554.169 16.4438C553.383 15.9624 552.774 15.2762 552.343 14.3853C551.911 13.4888 551.692 12.4595 551.687 11.2974V10.6997C551.687 9.50993 551.9 8.46403 552.326 7.56201C552.758 6.65446 553.364 5.95996 554.144 5.47852C554.93 4.99154 555.826 4.74805 556.833 4.74805C557.841 4.74805 558.734 4.99154 559.515 5.47852C560.3 5.95996 560.906 6.65446 561.332 7.56201C561.764 8.46403 561.98 9.50716 561.98 10.6914V11.231ZM559.456 10.6831C559.456 9.41585 559.23 8.45296 558.776 7.79443C558.322 7.1359 557.675 6.80664 556.833 6.80664C555.998 6.80664 555.353 7.13314 554.899 7.78613C554.446 8.43359 554.216 9.38542 554.21 10.6416V11.231C554.21 12.465 554.437 13.4224 554.891 14.103C555.345 14.7837 555.998 15.124 556.85 15.124C557.686 15.124 558.328 14.7975 558.776 14.1445C559.224 13.486 559.451 12.5286 559.456 11.2725V10.6831ZM574.468 17H571.977L567.13 9.04785V17H564.639V4.91406H567.13L571.986 12.8828V4.91406H574.468V17ZM586.341 6.93115H582.639V17H580.149V6.93115H576.496V4.91406H586.341V6.93115ZM594.446 14.5098H590.08L589.25 17H586.602L591.101 4.91406H593.408L597.932 17H595.284L594.446 14.5098ZM590.752 12.4927H593.774L592.254 7.96875L590.752 12.4927ZM609.216 12.9741C609.122 14.2746 608.641 15.2983 607.772 16.0454C606.909 16.7925 605.769 17.166 604.352 17.166C602.803 17.166 601.582 16.6458 600.691 15.6055C599.806 14.5596 599.363 13.1263 599.363 11.3057V10.5669C599.363 9.40479 599.568 8.38102 599.978 7.49561C600.387 6.61019 600.971 5.93229 601.729 5.46191C602.493 4.986 603.378 4.74805 604.385 4.74805C605.78 4.74805 606.903 5.12158 607.755 5.86865C608.608 6.61572 609.1 7.66439 609.233 9.01465H606.743C606.682 8.23438 606.463 7.66992 606.087 7.32129C605.716 6.96712 605.149 6.79004 604.385 6.79004C603.555 6.79004 602.933 7.08887 602.518 7.68652C602.108 8.27865 601.898 9.20003 601.887 10.4507V11.3638C601.887 12.6698 602.083 13.6243 602.476 14.2275C602.875 14.8307 603.5 15.1323 604.352 15.1323C605.121 15.1323 605.694 14.958 606.07 14.6094C606.452 14.2552 606.671 13.7101 606.726 12.9741H609.216ZM620.55 6.93115H616.848V17H614.358V6.93115H610.705V4.91406H620.55V6.93115ZM636.561 4.91406V12.8745C636.561 14.1971 636.146 15.243 635.316 16.0122C634.491 16.7814 633.362 17.166 631.929 17.166C630.518 17.166 629.397 16.7925 628.567 16.0454C627.737 15.2983 627.314 14.2718 627.297 12.9658V4.91406H629.787V12.8911C629.787 13.6825 629.975 14.2607 630.352 14.626C630.734 14.9857 631.259 15.1655 631.929 15.1655C633.329 15.1655 634.04 14.4295 634.062 12.9575V4.91406H636.561ZM645.72 13.8291C645.72 13.3587 645.554 12.999 645.222 12.75C644.89 12.4954 644.292 12.2298 643.429 11.9531C642.566 11.6709 641.882 11.3942 641.379 11.123C640.006 10.3815 639.32 9.38265 639.32 8.12646C639.32 7.47347 639.503 6.89242 639.868 6.3833C640.239 5.86865 640.767 5.46745 641.453 5.17969C642.145 4.89193 642.92 4.74805 643.777 4.74805C644.641 4.74805 645.41 4.90576 646.085 5.22119C646.76 5.53109 647.283 5.97103 647.654 6.54102C648.03 7.111 648.218 7.75846 648.218 8.4834H645.728C645.728 7.93001 645.554 7.50114 645.205 7.19678C644.857 6.88688 644.367 6.73193 643.736 6.73193C643.127 6.73193 642.654 6.86198 642.317 7.12207C641.979 7.37663 641.81 7.71419 641.81 8.13477C641.81 8.52767 642.007 8.85693 642.4 9.12256C642.798 9.38818 643.382 9.63721 644.151 9.86963C645.568 10.2957 646.6 10.8242 647.247 11.4551C647.895 12.0859 648.218 12.8717 648.218 13.8125C648.218 14.8584 647.823 15.6802 647.031 16.2778C646.24 16.87 645.175 17.166 643.836 17.166C642.906 17.166 642.059 16.9972 641.296 16.6597C640.532 16.3166 639.948 15.849 639.544 15.2568C639.146 14.6647 638.946 13.9785 638.946 13.1982H641.445C641.445 14.5319 642.242 15.1987 643.836 15.1987C644.428 15.1987 644.89 15.0798 645.222 14.8418C645.554 14.5983 645.72 14.2607 645.72 13.8291Z" fill="black"/>
</svg>
