<svg width="50" height="14" viewBox="0 0 50 14" fill="none" xmlns="http://www.w3.org/2000/svg">
<path d="M10.5576 13H7.9209V7.51562H2.7793V13H0.142578V0.203125H2.7793V5.38867H7.9209V0.203125H10.5576V13ZM23.3809 6.8916C23.3809 8.15137 23.1582 9.25586 22.7129 10.2051C22.2676 11.1543 21.6289 11.8867 20.7969 12.4023C19.9707 12.918 19.0215 13.1758 17.9492 13.1758C16.8887 13.1758 15.9424 12.9209 15.1104 12.4111C14.2783 11.9014 13.6338 11.1748 13.1768 10.2314C12.7197 9.28223 12.4883 8.19238 12.4824 6.96191V6.3291C12.4824 5.06934 12.708 3.96191 13.1592 3.00684C13.6162 2.0459 14.2578 1.31055 15.084 0.800781C15.916 0.285156 16.8652 0.0273438 17.9316 0.0273438C18.998 0.0273438 19.9443 0.285156 20.7705 0.800781C21.6025 1.31055 22.2441 2.0459 22.6953 3.00684C23.1523 3.96191 23.3809 5.06641 23.3809 6.32031V6.8916ZM20.709 6.31152C20.709 4.96973 20.4688 3.9502 19.9883 3.25293C19.5078 2.55566 18.8223 2.20703 17.9316 2.20703C17.0469 2.20703 16.3643 2.55273 15.8838 3.24414C15.4033 3.92969 15.1602 4.9375 15.1543 6.26758V6.8916C15.1543 8.19824 15.3945 9.21191 15.875 9.93262C16.3555 10.6533 17.0469 11.0137 17.9492 11.0137C18.834 11.0137 19.5137 10.668 19.9883 9.97656C20.4629 9.2793 20.7031 8.26562 20.709 6.93555V6.31152ZM28.7422 0.203125L32.0293 9.48438L35.2988 0.203125H38.7617V13H36.1162V9.50195L36.3799 3.46387L32.9258 13H31.1152L27.6699 3.47266L27.9336 9.50195V13H25.2969V0.203125H28.7422ZM48.7637 7.4541H43.7012V10.8818H49.6426V13H41.0645V0.203125H49.625V2.33887H43.7012V5.38867H48.7637V7.4541Z" fill="black"/>
</svg>
