<svg width="217" height="217" viewBox="0 0 217 217" fill="none" xmlns="http://www.w3.org/2000/svg">
<mask id="mask0" mask-type="alpha" maskUnits="userSpaceOnUse" x="0" y="0" width="217" height="217">
<circle cx="108.5" cy="108.5" r="107.5" fill="white" stroke="#6A6161" stroke-width="2" stroke-linejoin="round"/>
</mask>
<g mask="url(#mask0)">
<line x1="-85.888" y1="159.75" x2="165.802" y2="-79.0823" stroke="#6A6161" stroke-opacity="0.51" stroke-width="5" stroke-linejoin="round"/>
<line x1="-51.2046" y1="200.461" x2="200.485" y2="-38.3715" stroke="#6A6161" stroke-opacity="0.51" stroke-width="5" stroke-linejoin="round"/>
<line x1="-16.5213" y1="241.171" x2="235.169" y2="2.33924" stroke="#6A6161" stroke-opacity="0.51" stroke-width="5" stroke-linejoin="round"/>
<line x1="20.5616" y1="279.564" x2="272.252" y2="40.7323" stroke="#6A6161" stroke-opacity="0.51" stroke-width="5" stroke-linejoin="round"/>
<line x1="-79.0168" y1="171.666" x2="172.673" y2="-67.1664" stroke="#6A6161" stroke-opacity="0.51" stroke-width="5" stroke-linejoin="round"/>
<line x1="-44.3335" y1="212.376" x2="207.357" y2="-26.4556" stroke="#6A6161" stroke-opacity="0.51" stroke-width="5" stroke-linejoin="round"/>
<line x1="-9.65019" y1="253.087" x2="242.04" y2="14.2552" stroke="#6A6161" stroke-opacity="0.51" stroke-width="5" stroke-linejoin="round"/>
<line x1="27.4327" y1="291.48" x2="279.123" y2="52.6483" stroke="#6A6161" stroke-opacity="0.51" stroke-width="5" stroke-linejoin="round"/>
<line x1="-69.7461" y1="181.264" x2="181.944" y2="-57.5681" stroke="#6A6161" stroke-opacity="0.51" stroke-width="5" stroke-linejoin="round"/>
<line x1="-35.0628" y1="221.975" x2="216.627" y2="-16.8573" stroke="#6A6161" stroke-opacity="0.51" stroke-width="5" stroke-linejoin="round"/>
<line x1="-0.379468" y1="262.685" x2="251.311" y2="23.8535" stroke="#6A6161" stroke-opacity="0.51" stroke-width="5" stroke-linejoin="round"/>
<line x1="36.7034" y1="301.079" x2="288.393" y2="62.2466" stroke="#6A6161" stroke-opacity="0.51" stroke-width="5" stroke-linejoin="round"/>
<line x1="-62.875" y1="193.18" x2="188.815" y2="-45.6521" stroke="#6A6161" stroke-opacity="0.51" stroke-width="5" stroke-linejoin="round"/>
<line x1="-28.1916" y1="233.891" x2="223.498" y2="-4.94134" stroke="#6A6161" stroke-opacity="0.51" stroke-width="5" stroke-linejoin="round"/>
<line x1="6.49166" y1="274.601" x2="258.182" y2="35.7694" stroke="#6A6161" stroke-opacity="0.51" stroke-width="5" stroke-linejoin="round"/>
<line x1="43.5745" y1="312.995" x2="295.265" y2="74.1626" stroke="#6A6161" stroke-opacity="0.51" stroke-width="5" stroke-linejoin="round"/>
</g>
</svg>
