<svg width="1057" height="509" viewBox="0 0 1057 509" fill="none" xmlns="http://www.w3.org/2000/svg">
<path d="M221.36 100.2H284.576L299.984 115.752V151.032L284.432 166.728H240.944V201H221.36V100.2ZM275.648 150.312L280.688 145.272V121.656L275.648 116.616H240.944V150.312H275.648ZM313.014 184.44V116.76L329.574 100.2H378.822L395.094 116.472V131.88H375.51V123.672L368.742 116.904H339.942L332.598 124.248V176.952L339.942 184.296H368.742L375.51 177.528V169.32H395.094V184.728L378.822 201H329.574L313.014 184.44ZM407.373 184.44V116.76L423.933 100.2H473.181L489.453 116.472V131.88H469.869V123.672L463.101 116.904H434.301L426.957 124.248V176.952L434.301 184.296H463.101L469.869 177.528V169.32H489.453V184.728L473.181 201H423.933L407.373 184.44Z" fill="url(#paint0_linear)"/>
<path d="M258.45 218H315.52L329.43 232.04V263.89L315.39 278.06H276.13V309H258.45V218ZM307.46 263.24L312.01 258.69V237.37L307.46 232.82H276.13V263.24H307.46ZM341.193 294.05V232.95L356.143 218H402.943L417.893 232.95V294.05L402.943 309H356.143L341.193 294.05ZM393.583 293.92L400.213 287.29V239.71L393.583 233.08H365.503L358.873 239.71V287.29L365.503 293.92H393.583ZM433.518 218H451.198V294.05H496.698V309H433.518V218ZM507.039 218H524.719V309H507.039V218ZM542.317 218H558.177L598.737 279.75H598.997V218H616.027V309H600.167L559.607 247.38H559.347V309H542.317V218ZM632.962 218H698.742V232.95H650.642V255.96H694.972V270.65H650.642V294.05H698.742V309H632.962V218ZM709.85 294.96V281.96H727.27V289.63L731.56 293.92H758.47L762.89 289.5V274.42L758.6 270.13H724.15L710.11 256.09V232.04L724.15 218H765.23L779.27 232.04V245.17H761.85V237.37L757.56 233.08H731.82L727.53 237.37V250.76L731.82 255.05H766.27L780.31 269.09V294.7L766.01 309H723.89L709.85 294.96Z" fill="url(#paint1_linear)"/>
<path d="M369.008 334.395C367.078 333.84 365.672 333.16 364.789 332.355C363.914 331.543 363.477 330.543 363.477 329.355C363.477 328.012 364.012 326.902 365.082 326.027C366.16 325.145 367.559 324.703 369.277 324.703C370.449 324.703 371.492 324.93 372.406 325.383C373.328 325.836 374.039 326.461 374.539 327.258C375.047 328.055 375.301 328.926 375.301 329.871H373.039C373.039 328.84 372.711 328.031 372.055 327.445C371.398 326.852 370.473 326.555 369.277 326.555C368.168 326.555 367.301 326.801 366.676 327.293C366.059 327.777 365.75 328.453 365.75 329.32C365.75 330.016 366.043 330.605 366.629 331.09C367.223 331.566 368.227 332.004 369.641 332.402C371.062 332.801 372.172 333.242 372.969 333.727C373.773 334.203 374.367 334.762 374.75 335.402C375.141 336.043 375.336 336.797 375.336 337.664C375.336 339.047 374.797 340.156 373.719 340.992C372.641 341.82 371.199 342.234 369.395 342.234C368.223 342.234 367.129 342.012 366.113 341.566C365.098 341.113 364.312 340.496 363.758 339.715C363.211 338.934 362.938 338.047 362.938 337.055H365.199C365.199 338.086 365.578 338.902 366.336 339.504C367.102 340.098 368.121 340.395 369.395 340.395C370.582 340.395 371.492 340.152 372.125 339.668C372.758 339.184 373.074 338.523 373.074 337.688C373.074 336.852 372.781 336.207 372.195 335.754C371.609 335.293 370.547 334.84 369.008 334.395ZM385.099 330.855C386.06 329.676 387.31 329.086 388.849 329.086C391.528 329.086 392.88 330.598 392.903 333.621V342H390.735V333.609C390.728 332.695 390.517 332.02 390.103 331.582C389.696 331.145 389.06 330.926 388.192 330.926C387.489 330.926 386.872 331.113 386.341 331.488C385.81 331.863 385.395 332.355 385.099 332.965V342H382.931V324H385.099V330.855ZM409.018 342C408.893 341.75 408.791 341.305 408.713 340.664C407.705 341.711 406.502 342.234 405.103 342.234C403.853 342.234 402.826 341.883 402.021 341.18C401.225 340.469 400.826 339.57 400.826 338.484C400.826 337.164 401.326 336.141 402.326 335.414C403.334 334.68 404.748 334.312 406.568 334.312H408.678V333.316C408.678 332.559 408.451 331.957 407.998 331.512C407.545 331.059 406.877 330.832 405.994 330.832C405.221 330.832 404.572 331.027 404.049 331.418C403.525 331.809 403.264 332.281 403.264 332.836H401.084C401.084 332.203 401.307 331.594 401.752 331.008C402.205 330.414 402.814 329.945 403.58 329.602C404.353 329.258 405.201 329.086 406.123 329.086C407.584 329.086 408.728 329.453 409.557 330.188C410.385 330.914 410.814 331.918 410.846 333.199V339.035C410.846 340.199 410.994 341.125 411.291 341.812V342H409.018ZM405.42 340.348C406.1 340.348 406.744 340.172 407.353 339.82C407.963 339.469 408.404 339.012 408.678 338.449V335.848H406.978C404.322 335.848 402.994 336.625 402.994 338.18C402.994 338.859 403.221 339.391 403.674 339.773C404.127 340.156 404.709 340.348 405.42 340.348ZM425.413 331.266C425.085 331.211 424.729 331.184 424.347 331.184C422.925 331.184 421.96 331.789 421.452 333V342H419.284V329.32H421.393L421.429 330.785C422.14 329.652 423.147 329.086 424.452 329.086C424.874 329.086 425.194 329.141 425.413 329.25V331.266ZM437.484 342.234C435.765 342.234 434.367 341.672 433.289 340.547C432.211 339.414 431.672 337.902 431.672 336.012V335.613C431.672 334.355 431.91 333.234 432.387 332.25C432.871 331.258 433.543 330.484 434.402 329.93C435.269 329.367 436.207 329.086 437.215 329.086C438.863 329.086 440.144 329.629 441.058 330.715C441.973 331.801 442.43 333.355 442.43 335.379V336.281H433.84C433.871 337.531 434.234 338.543 434.93 339.316C435.633 340.082 436.523 340.465 437.601 340.465C438.367 340.465 439.015 340.309 439.547 339.996C440.078 339.684 440.543 339.27 440.941 338.754L442.265 339.785C441.203 341.418 439.609 342.234 437.484 342.234ZM437.215 330.867C436.34 330.867 435.605 331.188 435.012 331.828C434.418 332.461 434.051 333.352 433.91 334.5H440.262V334.336C440.199 333.234 439.902 332.383 439.371 331.781C438.84 331.172 438.121 330.867 437.215 330.867ZM466.525 333.504L470.978 324.938H473.533L467.65 335.637V342H465.4V335.637L459.517 324.938H462.095L466.525 333.504ZM479.089 335.543C479.089 334.301 479.331 333.184 479.815 332.191C480.307 331.199 480.987 330.434 481.854 329.895C482.729 329.355 483.725 329.086 484.842 329.086C486.569 329.086 487.964 329.684 489.026 330.879C490.096 332.074 490.632 333.664 490.632 335.648V335.801C490.632 337.035 490.393 338.145 489.917 339.129C489.448 340.105 488.772 340.867 487.889 341.414C487.014 341.961 486.007 342.234 484.866 342.234C483.147 342.234 481.753 341.637 480.682 340.441C479.62 339.246 479.089 337.664 479.089 335.695V335.543ZM481.268 335.801C481.268 337.207 481.592 338.336 482.241 339.188C482.897 340.039 483.772 340.465 484.866 340.465C485.967 340.465 486.842 340.035 487.491 339.176C488.139 338.309 488.464 337.098 488.464 335.543C488.464 334.152 488.132 333.027 487.467 332.168C486.811 331.301 485.936 330.867 484.842 330.867C483.772 330.867 482.909 331.293 482.253 332.145C481.596 332.996 481.268 334.215 481.268 335.801ZM506.218 340.746C505.375 341.738 504.136 342.234 502.504 342.234C501.152 342.234 500.121 341.844 499.41 341.062C498.707 340.273 498.351 339.109 498.343 337.57V329.32H500.511V337.512C500.511 339.434 501.293 340.395 502.855 340.395C504.511 340.395 505.613 339.777 506.16 338.543V329.32H508.328V342H506.265L506.218 340.746ZM522.801 331.266C522.473 331.211 522.118 331.184 521.735 331.184C520.313 331.184 519.348 331.789 518.84 333V342H516.673V329.32H518.782L518.817 330.785C519.528 329.652 520.536 329.086 521.84 329.086C522.262 329.086 522.583 329.141 522.801 329.25V331.266ZM545.514 334.066L543.428 336.234V342H541.178V324.938H543.428V333.375L551.01 324.938H553.729L547.014 332.473L554.256 342H551.561L545.514 334.066ZM562.695 329.32L562.765 330.914C563.734 329.695 565 329.086 566.562 329.086C569.242 329.086 570.593 330.598 570.617 333.621V342H568.449V333.609C568.441 332.695 568.23 332.02 567.816 331.582C567.41 331.145 566.773 330.926 565.906 330.926C565.203 330.926 564.585 331.113 564.054 331.488C563.523 331.863 563.109 332.355 562.812 332.965V342H560.644V329.32H562.695ZM578.352 335.543C578.352 334.301 578.594 333.184 579.079 332.191C579.571 331.199 580.25 330.434 581.118 329.895C581.993 329.355 582.989 329.086 584.106 329.086C585.833 329.086 587.227 329.684 588.29 330.879C589.36 332.074 589.895 333.664 589.895 335.648V335.801C589.895 337.035 589.657 338.145 589.18 339.129C588.711 340.105 588.036 340.867 587.153 341.414C586.278 341.961 585.27 342.234 584.129 342.234C582.411 342.234 581.016 341.637 579.946 340.441C578.883 339.246 578.352 337.664 578.352 335.695V335.543ZM580.532 335.801C580.532 337.207 580.856 338.336 581.504 339.188C582.161 340.039 583.036 340.465 584.129 340.465C585.231 340.465 586.106 340.035 586.754 339.176C587.403 338.309 587.727 337.098 587.727 335.543C587.727 334.152 587.395 333.027 586.731 332.168C586.075 331.301 585.2 330.867 584.106 330.867C583.036 330.867 582.172 331.293 581.516 332.145C580.86 332.996 580.532 334.215 580.532 335.801ZM608.88 339.012L611.318 329.32H613.486L609.794 342H608.037L604.955 332.391L601.955 342H600.197L596.517 329.32H598.673L601.169 338.812L604.122 329.32H605.869L608.88 339.012ZM623.096 342H620.928V324H623.096V342ZM636.878 342.234C635.16 342.234 633.761 341.672 632.683 340.547C631.605 339.414 631.066 337.902 631.066 336.012V335.613C631.066 334.355 631.304 333.234 631.781 332.25C632.265 331.258 632.937 330.484 633.796 329.93C634.663 329.367 635.601 329.086 636.609 329.086C638.257 329.086 639.538 329.629 640.453 330.715C641.367 331.801 641.824 333.355 641.824 335.379V336.281H633.234C633.265 337.531 633.628 338.543 634.324 339.316C635.027 340.082 635.917 340.465 636.995 340.465C637.761 340.465 638.41 340.309 638.941 339.996C639.472 339.684 639.937 339.27 640.335 338.754L641.66 339.785C640.597 341.418 639.003 342.234 636.878 342.234ZM636.609 330.867C635.734 330.867 634.999 331.188 634.406 331.828C633.812 332.461 633.445 333.352 633.304 334.5H639.656V334.336C639.593 333.234 639.296 332.383 638.765 331.781C638.234 331.172 637.515 330.867 636.609 330.867ZM648.856 335.555C648.856 333.609 649.317 332.047 650.239 330.867C651.16 329.68 652.367 329.086 653.86 329.086C655.344 329.086 656.52 329.594 657.387 330.609V324H659.555V342H657.563L657.457 340.641C656.59 341.703 655.383 342.234 653.836 342.234C652.367 342.234 651.168 341.633 650.239 340.43C649.317 339.227 648.856 337.656 648.856 335.719V335.555ZM651.024 335.801C651.024 337.238 651.321 338.363 651.914 339.176C652.508 339.988 653.328 340.395 654.375 340.395C655.75 340.395 656.754 339.777 657.387 338.543V332.719C656.739 331.523 655.742 330.926 654.399 330.926C653.336 330.926 652.508 331.336 651.914 332.156C651.321 332.977 651.024 334.191 651.024 335.801ZM667.454 335.555C667.454 333.578 667.911 332.008 668.825 330.844C669.74 329.672 670.95 329.086 672.458 329.086C674.005 329.086 675.212 329.633 676.079 330.727L676.185 329.32H678.165V341.695C678.165 343.336 677.677 344.629 676.7 345.574C675.732 346.52 674.427 346.992 672.786 346.992C671.872 346.992 670.978 346.797 670.103 346.406C669.228 346.016 668.56 345.48 668.099 344.801L669.224 343.5C670.154 344.648 671.29 345.223 672.634 345.223C673.689 345.223 674.509 344.926 675.095 344.332C675.689 343.738 675.986 342.902 675.986 341.824V340.734C675.118 341.734 673.935 342.234 672.435 342.234C670.95 342.234 669.747 341.637 668.825 340.441C667.911 339.246 667.454 337.617 667.454 335.555ZM669.634 335.801C669.634 337.23 669.927 338.355 670.513 339.176C671.099 339.988 671.919 340.395 672.974 340.395C674.341 340.395 675.345 339.773 675.986 338.531V332.742C675.322 331.531 674.325 330.926 672.997 330.926C671.943 330.926 671.118 331.336 670.525 332.156C669.931 332.977 669.634 334.191 669.634 335.801ZM691.748 342.234C690.03 342.234 688.631 341.672 687.553 340.547C686.475 339.414 685.936 337.902 685.936 336.012V335.613C685.936 334.355 686.174 333.234 686.651 332.25C687.135 331.258 687.807 330.484 688.666 329.93C689.533 329.367 690.471 329.086 691.479 329.086C693.127 329.086 694.408 329.629 695.323 330.715C696.237 331.801 696.694 333.355 696.694 335.379V336.281H688.104C688.135 337.531 688.498 338.543 689.194 339.316C689.897 340.082 690.787 340.465 691.865 340.465C692.631 340.465 693.28 340.309 693.811 339.996C694.342 339.684 694.807 339.27 695.205 338.754L696.53 339.785C695.467 341.418 693.873 342.234 691.748 342.234ZM691.479 330.867C690.604 330.867 689.869 331.188 689.276 331.828C688.682 332.461 688.315 333.352 688.174 334.5H694.526V334.336C694.463 333.234 694.166 332.383 693.635 331.781C693.104 331.172 692.385 330.867 691.479 330.867Z" fill="black"/>
<line x1="179.477" y1="372.577" x2="839.476" y2="366.523" stroke="url(#paint2_linear)" stroke-width="5" stroke-linecap="round"/>
<defs>
<linearGradient id="paint0_linear" x1="426" y1="127" x2="448" y2="235" gradientUnits="userSpaceOnUse">
<stop stop-color="#1076B5"/>
<stop offset="0.279613" stop-color="#1076B5" stop-opacity="0.70899"/>
<stop offset="1" stop-color="#1076B5" stop-opacity="0"/>
</linearGradient>
<linearGradient id="paint1_linear" x1="612" y1="180" x2="612" y2="309" gradientUnits="userSpaceOnUse">
<stop offset="0.653214"/>
<stop offset="1" stop-opacity="0"/>
</linearGradient>
<linearGradient id="paint2_linear" x1="509.5" y1="372.05" x2="509.509" y2="373.05" gradientUnits="userSpaceOnUse">
<stop stop-color="#4E90B3"/>
<stop offset="1" stop-color="#B5FAFF" stop-opacity="0"/>
</linearGradient>
</defs>
</svg>
