<svg width="523" height="91" viewBox="0 0 523 91" fill="none" xmlns="http://www.w3.org/2000/svg">
<path d="M0.450001 -6.19888e-06H57.52L71.43 14.04V45.89L57.39 60.06H18.13V91H0.450001V-6.19888e-06ZM49.46 45.24L54.01 40.69V19.37L49.46 14.82H18.13V45.24H49.46ZM83.193 76.05V14.95L98.143 -6.19888e-06H144.943L159.893 14.95V76.05L144.943 91H98.143L83.193 76.05ZM135.583 75.92L142.213 69.29V21.71L135.583 15.08H107.503L100.873 21.71V69.29L107.503 75.92H135.583ZM175.518 -6.19888e-06H193.198V76.05H238.698V91H175.518V-6.19888e-06ZM249.039 -6.19888e-06H266.719V91H249.039V-6.19888e-06ZM284.317 -6.19888e-06H300.177L340.737 61.75H340.997V-6.19888e-06H358.027V91H342.167L301.607 29.38H301.347V91H284.317V-6.19888e-06ZM374.962 -6.19888e-06H440.742V14.95H392.642V37.96H436.972V52.65H392.642V76.05H440.742V91H374.962V-6.19888e-06ZM451.85 76.96V63.96H469.27V71.63L473.56 75.92H500.47L504.89 71.5V56.42L500.6 52.13H466.15L452.11 38.09V14.04L466.15 -6.19888e-06H507.23L521.27 14.04V27.17H503.85V19.37L499.56 15.08H473.82L469.53 19.37V32.76L473.82 37.05H508.27L522.31 51.09V76.7L508.01 91H465.89L451.85 76.96Z" fill="url(#paint0_linear)"/>
<defs>
<linearGradient id="paint0_linear" x1="354" y1="-38" x2="354" y2="91" gradientUnits="userSpaceOnUse">
<stop offset="0.653214"/>
<stop offset="1" stop-opacity="0"/>
</linearGradient>
</defs>
</svg>
